<svg xmlns="http://www.w3.org/2000/svg" viewBox="-12467 1051 62 62" width="62" height="62">
  <defs>
    <style>
      .cls-1, .cls-4 {
        fill: none;
      }

      .cls-1 {
        stroke: #e84855;
        stroke-width: 1px;
      }

      .cls-2 {
        fill: #e84855;
      }

      .cls-3 {
        stroke: none;
      }
    </style>
  </defs>
  <g id="group-35" transform="translate(-12756 619)">
    <g id="group-22" transform="translate(-1 -129)">
      <g id="group-20" transform="translate(272 -3)">
        <g id="rectangle-6" class="cls-1" transform="translate(18 564)">
          <rect class="cls-3" width="62" height="62" rx="5"/>
          <rect class="cls-4" x="0.5" y="0.5" width="61" height="61" rx="4.5"/>
        </g>
      </g>
    </g>
    <path id="bike" class="cls-2" d="M8.333,33.367a5.833,5.833,0,1,1,5.833-5.833,5.833,5.833,0,0,1-5.833,5.833m0-14.167a8.333,8.333,0,1,0,8.333,8.333A8.333,8.333,0,0,0,8.333,19.2m16.333-3.333h7v-3H26.333L23.1,7.417a2.849,2.849,0,0,0-2.433-1.383,2.779,2.779,0,0,0-2,.833L12.5,13.017a2.762,2.762,0,0,0-.833,2.017,2.815,2.815,0,0,0,1.417,2.45l5.583,3.383V29.2h3V18.367l-3.75-2.75L21.783,11.7m9.883,21.667A5.833,5.833,0,1,1,37.5,27.533a5.833,5.833,0,0,1-5.833,5.833m0-14.167A8.333,8.333,0,1,0,40,27.533,8.333,8.333,0,0,0,31.667,19.2m-5-12a3,3,0,1,0-3-3A2.988,2.988,0,0,0,26.667,7.2Z" transform="translate(300 444.8)"/>
  </g>
</svg>
