<svg xmlns="http://www.w3.org/2000/svg" viewBox="-12647 1051 62 62" width="62" height="62">
  <defs>
    <style>
      .cls-1, .cls-4 {
        fill: none;
      }

      .cls-1 {
        stroke: #e84855;
        stroke-width: 1px;
      }

      .cls-2 {
        fill: #e84855;
      }

      .cls-3 {
        stroke: none;
      }
    </style>
  </defs>
  <g id="group-33" transform="translate(-12758 619)">
    <g id="group-24" transform="translate(-1 -129)">
      <g id="group-20" transform="translate(94 -3)">
        <g id="rectangle-6" class="cls-1" transform="translate(18 564)">
          <rect class="cls-3" width="62" height="62" rx="5"/>
          <rect class="cls-4" x="0.5" y="0.5" width="61" height="61" rx="4.5"/>
        </g>
      </g>
    </g>
    <path id="walk" class="cls-2" d="M21.57,18.991h9.357V15.539H23.986L20.151,9.154a3.271,3.271,0,0,0-2.8-1.611,3.137,3.137,0,0,0-.959.153L6,10.938v9.971H9.451V13.871L13.5,12.606,6,42H9.451l5.5-15.55,4.468,5.963V42h3.451V29.709L18.1,21l1.4-5.5m1.841-8.4a3.451,3.451,0,1,0-3.451-3.451A3.437,3.437,0,0,0,21.339,7.1Z" transform="translate(125 441.8)"/>
  </g>
</svg>
