<svg xmlns="http://www.w3.org/2000/svg" viewBox="-12557 1051 62 62" width="62" height="62">
  <defs>
    <style>
      .cls-1, .cls-4 {
        fill: none;
      }

      .cls-1 {
        stroke: #e84855;
        stroke-width: 1px;
      }

      .cls-2 {
        fill: #e84855;
      }

      .cls-3 {
        stroke: none;
      }
    </style>
  </defs>
  <g id="group-123" transform="translate(-13383 397)">
    <g id="group-23" transform="translate(625 93)">
      <g id="group-20" transform="translate(183 -3)">
        <g id="rectangle-6" class="cls-1" transform="translate(18 564)">
          <rect class="cls-3" width="62" height="62" rx="5"/>
          <rect class="cls-4" x="0.5" y="0.5" width="61" height="61" rx="4.5"/>
        </g>
      </g>
    </g>
    <path id="car" class="cls-2" d="M7.434,18.3,10.76,8.326H35.147L38.473,18.3M35.147,29.387a3.326,3.326,0,1,1,3.326-3.326,3.326,3.326,0,0,1-3.326,3.326m-24.387,0a3.326,3.326,0,1,1,3.326-3.326,3.326,3.326,0,0,1-3.326,3.326M38.3,7.217A3.323,3.323,0,0,0,35.147,5H10.76A3.323,3.323,0,0,0,7.611,7.217L3,20.519V38.256a2.217,2.217,0,0,0,2.217,2.217H7.434a2.217,2.217,0,0,0,2.217-2.217V36.039h26.6v2.217a2.217,2.217,0,0,0,2.217,2.217H40.69a2.217,2.217,0,0,0,2.217-2.217V20.519Z" transform="translate(834 662)"/>
  </g>
</svg>
