<svg xmlns="http://www.w3.org/2000/svg" viewBox="-9963 1282 62 62">
  <defs>
    <style>
      .cls-1, .cls-4 {
        fill: none;
      }

      .cls-1 {
        stroke: #1b998b;
        stroke-width: 1px;
      }

      .cls-2 {
        fill: #1b998b;
      }

      .cls-3 {
        stroke: none;
      }
    </style>
  </defs>
  <g id="group-66" transform="translate(-11111 449)">
    <g id="group-23" transform="translate(947 272)">
      <g id="group-20" transform="translate(183 -3)">
        <g id="rectangle-6" class="cls-1" transform="translate(18 564)">
          <rect class="cls-3" width="62" height="62" rx="5"/>
          <rect class="cls-4" x="0.5" y="0.5" width="61" height="61" rx="4.5"/>
        </g>
      </g>
    </g>
    <g id="group-65" transform="translate(1152.016 846.148)">
      <path id="path" class="cls-2" d="M310.862,686.48c.323.165.665.317,1.026.462a22.526,22.526,0,0,0,4.758,1.267,31.535,31.535,0,0,0,5.068.4,24.483,24.483,0,0,0,11.34-2.4q.374-.2.7-.424a7.89,7.89,0,0,0,.925-.7,4.756,4.756,0,0,0,1.2-1.533l-.881.222a6.779,6.779,0,0,1-.817.71,9.934,9.934,0,0,1-.912.6l-.482.26a24.947,24.947,0,0,1-11.074,2.255,32.053,32.053,0,0,1-3.8-.222.436.436,0,0,1-.228.089h-.114a.494.494,0,0,1-.361-.114l-.057-.082q-.71-.1-1.387-.234a22.7,22.7,0,0,1-3.06-.823,16.026,16.026,0,0,1-1.748-.722c-2.293-1.115-3.687-2.591-3.687-4.206a4.047,4.047,0,0,1,1.9-3.117v-.051a2.952,2.952,0,0,1,.247-1.166,3.844,3.844,0,0,0,.431.748,5.253,5.253,0,0,0,.4.481,3.959,3.959,0,0,0,.285.279c2.306,2.148,7.3,3.63,13.088,3.63a30.86,30.86,0,0,0,6.018-.57l.633-.127c.424-.095.836-.2,1.267-.317a16.922,16.922,0,0,0,3.326-1.3c.247-.133.488-.266.71-.412a5.7,5.7,0,0,0,2.312-2.42,2.951,2.951,0,0,1,.247,1.166,4.047,4.047,0,0,1-1.9,3.117v.051a2.838,2.838,0,0,1-.1.722c2.293,1.115,3.687,2.591,3.687,4.206,0,3.491-6.474,6.335-14.456,6.335-4.941,0-9.3-1.083-11.9-2.737a17.713,17.713,0,0,1-1.9-.7c1.824,2.572,7.317,4.434,13.81,4.434,7.07,0,12.949-2.217,14.2-5.144a2.926,2.926,0,0,1,.247,1.172c0,3.484-6.468,6.335-14.456,6.335s-14.456-2.825-14.456-6.335a2.768,2.768,0,0,1,.1-.722c-2.293-1.115-3.687-2.591-3.687-4.213a2.939,2.939,0,0,1,.247-1.172A6.306,6.306,0,0,0,310.862,686.48Zm13.341-1.628c.2,0,.317-.12.253-.209a.57.57,0,0,0-.475-.108,17.177,17.177,0,0,1-2.376.146c-.209,0-.38.07-.386.165s.165.165.374.171h.12A19.144,19.144,0,0,0,324.2,684.852Zm-8.546-.944a11.654,11.654,0,0,0,2.116.684h.177a.576.576,0,0,0,.336-.089c.1-.082,0-.184-.158-.222a10.763,10.763,0,0,1-1.9-.633.767.767,0,0,0-.539,0C315.512,683.737,315.512,683.839,315.658,683.908Zm6.056,3.294h0v-1.356h0c0-.095-.133-.184-.336-.234a1.576,1.576,0,0,0-.317-.038h0a20.2,20.2,0,0,1-3.63-.424h0a1.267,1.267,0,0,0-.912.114h0l-1.558,1.178a27.87,27.87,0,0,0,6.753.754Zm-10.624-5.9H308.2a3.771,3.771,0,0,0,1.812,2.952h0l2.68-.678h.051c.177-.057.3-.146.3-.247a.19.19,0,0,0-.082-.139h0a3.067,3.067,0,0,1-.881-1.21A10.022,10.022,0,0,1,311.09,681.3Zm18.276,2.648a10.721,10.721,0,0,1-2.224.906h0c-.31.082-.418.266-.234.405h0l1.558,1.178a13.823,13.823,0,0,0,4.948-2.16h0l-2.585-.633C330.361,683.718,329.873,683.826,329.366,683.946Zm9.452,2.312a3.771,3.771,0,0,0-1.812-2.952h0l-1.058.266a2.945,2.945,0,0,1,.222,1.1,3.091,3.091,0,0,1-.463,1.584Zm-8.318,3.928h0l1.558,1.178a13.855,13.855,0,0,0,4.948-2.16h0l-2.667-.7h-.051a1.5,1.5,0,0,0-.634,0,.761.761,0,0,0-.234.1h0a10.038,10.038,0,0,1-2.654,1.159h0c-.348.076-.45.253-.266.393Zm-11.954,1.185a27.874,27.874,0,0,0,6.759.792h0v-1.349h0a32.5,32.5,0,0,1-3.592.2c-.862,0-1.71-.032-2.534-.1Z" transform="translate(-287.054 -662.853)"/>
      <path id="path-2" data-name="path" class="cls-2" d="M339.115,671.547c0,1.489-1.178,2.851-3.167,3.934-.215.12-.443.234-.684.348a18.372,18.372,0,0,1-3.123,1.115q-.538.146-1.109.266l-.7.139a31.085,31.085,0,0,1-5.7.507,25.7,25.7,0,0,1-10.611-2.027,10.5,10.5,0,0,1-2.116-1.267q-.247-.2-.462-.412a3.643,3.643,0,0,1-1.267-2.585,3.034,3.034,0,0,1,.374-1.432,2.871,2.871,0,0,1-.127-.849,2.946,2.946,0,0,1,.247-1.166,4.131,4.131,0,0,0,.634,1,10.814,10.814,0,0,0,4.878,2.87c.279.1.57.177.868.266a29.292,29.292,0,0,0,7.83,1.007,26.8,26.8,0,0,0,9.9-1.717,11.28,11.28,0,0,0,2.844-1.615,6.252,6.252,0,0,0,.589-.539,4.3,4.3,0,0,0,.874-1.267,2.932,2.932,0,0,1,.247,1.172,3.028,3.028,0,0,1-.374,1.432,2.9,2.9,0,0,1,.158.817Zm-14.482,5.9h0V676.1h0c0-.1-.139-.184-.342-.234a1.34,1.34,0,0,0-.31-.038h0a20.274,20.274,0,0,1-3.63-.424h0a1.267,1.267,0,0,0-.912.114h0L317.88,676.7A27.967,27.967,0,0,0,324.633,677.451Zm-13.24-5.9h-.279a3.771,3.771,0,0,0,1.812,2.952h0l2.224-.557a9.914,9.914,0,0,1-3.725-2.395Zm18.4,3.655a.173.173,0,0,0,0,.272h0l1.558,1.178a13.881,13.881,0,0,0,4.948-2.16h0l-1.9-.488a23.015,23.015,0,0,1-4.574,1.2Z" transform="translate(-288.117 -659.62)"/>
      <path id="path-3" data-name="path" class="cls-2" d="M337.886,663.9a6.08,6.08,0,0,1-.583.437,13.137,13.137,0,0,1-2.92,1.47c-.355.133-.722.253-1.109.367l-.716.2a29.587,29.587,0,0,1-7.488.912c-5.765,0-10.769-1.47-13.056-3.6a3.731,3.731,0,0,1-1.394-2.711c0-3.484,6.468-6.335,14.456-6.335s14.456,2.825,14.456,6.335A3.9,3.9,0,0,1,337.886,663.9Zm-10.326.634c.2,0,.317-.12.253-.209a.564.564,0,0,0-.475-.108,17.053,17.053,0,0,1-2.376.146c-.209,0-.38.07-.386.165s.165.165.374.171h.12A19.112,19.112,0,0,0,327.56,664.535Zm-2.49,2.369h0v-1.349h0v-.038c0-.1-.133-.184-.336-.234a1.313,1.313,0,0,0-.31-.038h0a20.189,20.189,0,0,1-3.63-.424h0a1.267,1.267,0,0,0-.912.114h0l-1.558,1.178a27.875,27.875,0,0,0,6.747.792Zm-3.586-2.9a10.659,10.659,0,0,1-1.9-.633.76.76,0,0,0-.538,0c-.152.063-.152.171,0,.234a11.729,11.729,0,0,0,2.122.684.888.888,0,0,0,.177,0,.57.57,0,0,0,.336-.089c.057-.076-.013-.177-.2-.222Zm-4.51-1.862a.481.481,0,0,0,.361.114h.114c.2,0,.31-.12.247-.209a1.6,1.6,0,0,1-.355-1.235c0-.089-.146-.171-.355-.177s-.386.063-.4.158a1.575,1.575,0,0,0,0,.215,1.9,1.9,0,0,0,.38,1.109Zm-5.41-1.14a3.771,3.771,0,0,0,1.812,2.952h0l2.68-.678h.051c.177-.051.3-.146.3-.247a.19.19,0,0,0-.082-.139h0a2.743,2.743,0,0,1-.976-1.584h0c0-.158-.31-.291-.678-.291h-3.11Zm8.318-3.928h0l-1.558-1.178a13.857,13.857,0,0,0-4.929,2.141h0l2.68.678h.051a1.49,1.49,0,0,0,.633,0,.739.739,0,0,0,.234-.1h0a10.067,10.067,0,0,1,2.654-1.159h0c.31-.082.412-.26.228-.4Zm0,1.185a.76.76,0,0,0-.538,0,7.087,7.087,0,0,0-1.66.893c-.108.076-.044.177.139.228a.767.767,0,0,0,.19,0,.589.589,0,0,0,.329-.082,6.477,6.477,0,0,1,1.514-.817c.177-.07.19-.177.051-.247Zm.31,3.212c0,.538,1,.919,2.217.969a5.593,5.593,0,0,0,2.534-.551,5.7,5.7,0,0,1-2.35,1.052,11.822,11.822,0,0,1,4.935,0,5.662,5.662,0,0,1-2.35-1.052,5.587,5.587,0,0,0,2.534.551c1.223-.051,2.217-.437,2.217-.969s-.995-.969-2.217-.969a4.307,4.307,0,0,0-.988.139c.323-.209.57-.424.57-.633,0-.532-.995-.969-2.217-.969s-2.217.431-2.217.969c0,.177.247.393.57.633a4.4,4.4,0,0,0-.988-.139c-1.229-.019-2.224.412-2.224.944Zm10.554-2.8a.671.671,0,0,0,.279.051.709.709,0,0,0,.26-.044c.152-.063.165-.171,0-.234a11.283,11.283,0,0,0-2.072-.71.7.7,0,0,0-.513.063c-.1.082-.038.184.146.228A10.138,10.138,0,0,1,330.746,658.669Zm-7.925-1.267c-.2,0-.323.114-.266.2a.463.463,0,0,0,.367.12h.1a17.225,17.225,0,0,1,2.046-.12h.361c.209,0,.386-.07.4-.158s-.152-.171-.361-.171H325.1A18.753,18.753,0,0,0,322.821,657.4Zm2.249-2.319h0v1.349h0v.038c0,.1.139.184.342.234a1.371,1.371,0,0,0,.31.038h0a20.1,20.1,0,0,1,3.63.424h0a1.267,1.267,0,0,0,.912-.114h0l1.558-1.178a27.964,27.964,0,0,0-6.753-.8Zm6.816,7.513a6.045,6.045,0,0,1-1.457.83c-.152.063-.158.171,0,.234a.633.633,0,0,0,.272.051.709.709,0,0,0,.26-.044,6.605,6.605,0,0,0,1.6-.919c.1-.082.032-.184-.152-.222a.684.684,0,0,0-.526.063Zm1.356-2.648a.551.551,0,0,0-.469-.114c-.2,0-.317.12-.26.2a1.691,1.691,0,0,1,.3.944q0,.048,0,.1a.445.445,0,0,0,.367.171h0c.2,0,.374-.07.38-.158a.514.514,0,0,0,0-.108,1.862,1.862,0,0,0-.323-1.045Zm.139,3.3a.738.738,0,0,0-.234.1h0a10.022,10.022,0,0,1-2.654,1.159h0c-.31.082-.418.26-.234.406h0l1.558,1.178a13.848,13.848,0,0,0,4.948-2.16h0l-2.68-.678h-.051a1.506,1.506,0,0,0-.646-.006Zm3.389-5.22h0l-2.68.678h-.051c-.177.051-.3.146-.3.247a.19.19,0,0,0,.082.139h0a2.724,2.724,0,0,1,.976,1.584h0c0,.158.31.291.684.291h3.123a3.969,3.969,0,0,0-1.831-2.933Z" transform="translate(-288.282 -654.68)"/>
      <path id="path-4" data-name="path" class="cls-2" d="M294.817,682.263c-4.314,6.462-9.927,10.491-13.367,9.851a3.225,3.225,0,0,0,.919.944c3.168,2.129,9.718-2.065,14.57-9.363s6.234-14.938,3.047-17.066a3.219,3.219,0,0,0-1.223-.488C300.7,669.073,299.131,675.8,294.817,682.263Z" transform="translate(-277.591 -658.895)"/>
      <path id="path-5" data-name="path" class="cls-2" d="M280.115,672.723c-4.872,7.311-6.259,14.913-3.047,17.066s9.718-2.065,14.57-9.363,6.234-14.938,3.047-17.066S284.98,665.425,280.115,672.723Zm3.864-.393c.146-.171.3-.222.348-.12a.507.507,0,0,1-.108.405l-.07.089a19.15,19.15,0,0,0-1.362,1.8l-.2.31c-.127.2-.3.31-.386.266s-.063-.241.063-.437l.222-.342a20.911,20.911,0,0,1,1.508-1.97Zm-3.491.633h0l1.267.824h0c.076.076.082.241,0,.456a1.585,1.585,0,0,1-.152.3h0a22.408,22.408,0,0,0-1.831,3.579h0a1.387,1.387,0,0,1-.634.767h0l-2.027.7a30.737,30.737,0,0,1,3.377-6.626Zm.386,5.258a11.076,11.076,0,0,0-.557,2.122.849.849,0,0,1-.323.494c-.152.1-.253.044-.228-.127a12.15,12.15,0,0,1,.633-2.331.76.76,0,0,1,.374-.431c.12-.032.171.089.1.285Zm2.325,5.556a6.683,6.683,0,0,0,1.653-.823c.152-.1.247-.044.222.133a.761.761,0,0,1-.12.285.78.78,0,0,1-.2.209,7.256,7.256,0,0,1-1.812.906c-.133.044-.184-.082-.114-.279a.754.754,0,0,1,.367-.418Zm-3.243-.374a.634.634,0,0,1,.184-.5c.146-.171.3-.222.348-.114a1.856,1.856,0,0,0,.678.855l.089.057c.089.051.057.247-.07.443h0c-.127.19-.291.3-.38.247l-.1-.063a2.04,2.04,0,0,1-.754-.912Zm-2.3,5.5a4.244,4.244,0,0,1-1.6-3.453h0l2.255-2.034h0l.044-.038c.158-.133.31-.184.405-.12a.2.2,0,0,1,.076.158h0a3,3,0,0,0,.855,1.856h0c.139.108.076.462-.152.8h0Zm8.666-5.207h0l.127,2.141a15.2,15.2,0,0,1-4.992,3.206h0l1.014-2.863h0v-.051a1.66,1.66,0,0,1,.4-.576.811.811,0,0,1,.234-.152h0a11.04,11.04,0,0,0,2.68-1.717h0c.279-.228.507-.215.519.038Zm-2.091-8.235a9.043,9.043,0,0,0,4.473-3.1,9.066,9.066,0,0,0-1.147,5.321,9.07,9.07,0,0,0-4.472,3.1,9.235,9.235,0,0,0,1.134-5.321Zm7.2-2.483a.843.843,0,0,1,.323-.494c.146-.1.247-.038.215.139a12.752,12.752,0,0,1-.665,2.357.842.842,0,0,1-.089.171.633.633,0,0,1-.285.253c-.133.038-.184-.089-.108-.285a11.721,11.721,0,0,0,.6-2.141Zm-3.8,8.039c-.146.165-.3.215-.342.1a.633.633,0,0,1,.19-.5,18.767,18.767,0,0,0,1.584-2.084c.127-.2.3-.3.386-.253s.057.253-.076.443l-.076.114a20.778,20.778,0,0,1-1.685,2.179Zm3.662-.843h0l-1.267-.824h0c-.076-.076-.082-.234,0-.45a1.56,1.56,0,0,1,.152-.31h0a22.173,22.173,0,0,0,1.825-3.573h0a1.374,1.374,0,0,1,.633-.767h0l2.027-.7a30.54,30.54,0,0,1-3.389,6.626Zm-2.578-11.017a.633.633,0,0,1-.279.253,7.143,7.143,0,0,0-1.666.887c-.152.108-.253.051-.228-.114a.83.83,0,0,1,.317-.494,7.773,7.773,0,0,1,1.831-.976c.133-.051.19.07.127.266a.9.9,0,0,1-.12.177Zm3.167.7a.532.532,0,0,1-.114.4l-.076.1c-.146.165-.3.209-.342.095a1.9,1.9,0,0,0-.722-.969l-.19-.108c-.089-.044-.063-.241.057-.437s.3-.317.386-.272a1.5,1.5,0,0,1,.209.12,2.085,2.085,0,0,1,.773,1.071Zm-2.984-2.274a.753.753,0,0,1-.234.152h0a11.022,11.022,0,0,0-2.68,1.717h0c-.266.234-.494.222-.513-.032h0l-.127-2.141a15.2,15.2,0,0,1,4.992-3.205h0l-1.02,2.863h0V667a1.647,1.647,0,0,1-.437.589Zm6.835.082h0l-2.243,2.04h0l-.044.038c-.158.133-.31.184-.405.12a.209.209,0,0,1-.076-.152h0a3.022,3.022,0,0,0-.855-1.856h0c-.139-.108-.076-.462.152-.8h0l1.9-2.851a4.349,4.349,0,0,1,1.552,3.465Z" transform="translate(-275.35 -657.673)"/>
    </g>
  </g>
</svg>
