<svg xmlns="http://www.w3.org/2000/svg" viewBox="-10319 1282 62 62">
  <defs>
    <style>
      .cls-1, .cls-4 {
        fill: none;
      }

      .cls-1 {
        stroke: #1b998b;
        stroke-width: 1px;
      }

      .cls-2 {
        fill: #1b998b;
      }

      .cls-3 {
        stroke: none;
      }
    </style>
  </defs>
  <g id="group-23" transform="translate(-10520 721)">
    <g id="group-20" transform="translate(183 -3)">
      <g id="rectangle-6" class="cls-1" transform="translate(18 564)">
        <rect class="cls-3" width="62" height="62" rx="5"/>
        <rect class="cls-4" x="0.5" y="0.5" width="61" height="61" rx="4.5"/>
      </g>
    </g>
    <path id="coffee" class="cls-2" d="M2,42.655H41.655V38.249H2M41.655,14.015H37.249V7.406h4.406m0-4.406H6.406V25.03a8.812,8.812,0,0,0,8.812,8.812H28.436a8.812,8.812,0,0,0,8.812-8.812V18.421h4.406a4.406,4.406,0,0,0,4.406-4.406V7.406A4.4,4.4,0,0,0,41.655,3Z" transform="translate(208 569)"/>
  </g>
</svg>
