<svg xmlns="http://www.w3.org/2000/svg" viewBox="-11919 1028.783 38.082 89.727" width="30" height="90" >
  <defs>
    <style>
      .cls-1, .cls-4 {
        fill: none;
      }

      .cls-1 {
        stroke: #1b998b;
        stroke-width: 1px;
      }

      .cls-2 {
        fill: #1b998b;
      }

      .cls-3 {
        fill: #fff;
      }

      .cls-4 {
        stroke: #fff;
        stroke-width: 2px;
      }

      .cls-5 {
        fill: #2d3047;
      }
    </style>
  </defs>
  <g id="group-120" transform="translate(-13223 208)">
    <ellipse id="ellipse" class="cls-1" cx="18.541" cy="5.141" rx="18.541" ry="5.141" transform="translate(1304.5 899.729)"/>
    <ellipse id="ellipse-2" data-name="ellipse" class="cls-1" cx="15.814" cy="4.386" rx="15.814" ry="4.386" transform="translate(1306.5 900.483)"/>
    <ellipse id="ellipse-3" data-name="ellipse" class="cls-1" cx="15.814" cy="4.386" rx="15.814" ry="4.386" transform="translate(1306.5 900.483)"/>
    <ellipse id="ellipse-4" data-name="ellipse" class="cls-1" cx="15.814" cy="4.386" rx="15.814" ry="4.386" transform="translate(1306.5 900.483)"/>
    <ellipse id="ellipse-5" data-name="ellipse" class="cls-1" cx="12.099" cy="3.356" rx="12.099" ry="3.356" transform="translate(1310.5 901.513)"/>
    <path id="path" class="cls-2" d="M224.282,44.861c0,10.24-8.3,66.513-18.541,66.513S187.2,55.088,187.2,44.861a18.541,18.541,0,1,1,37.082,0Z" transform="translate(1116.8 794.463)"/>
    <circle id="ellipse-6" data-name="ellipse" class="cls-3" cx="14.042" cy="14.042" r="14.042" transform="translate(1309 825.29)"/>
    <circle id="ellipse-7" data-name="ellipse" class="cls-4" cx="14.042" cy="14.042" r="14.042" transform="translate(1308.5 825.29)"/>
    <path id="MIDDLE" class="cls-5" d="M2.23-5.687,3.5-1.73,4.766-5.687h1.8V0H5.2V-1.328l.133-2.719L3.953,0H3.047L1.668-4.051,1.8-1.328V0H.43V-5.687ZM8.9,0H7.535V-5.687H8.9Zm.953,0V-5.687h1.832a2.7,2.7,0,0,1,1.355.342,2.4,2.4,0,0,1,.939.965,2.913,2.913,0,0,1,.342,1.4v.262a2.93,2.93,0,0,1-.33,1.4,2.413,2.413,0,0,1-.93.969A2.636,2.636,0,0,1,11.727,0Zm1.371-4.629v3.574H11.7a1.067,1.067,0,0,0,.906-.42,2.058,2.058,0,0,0,.316-1.248v-.246a2.041,2.041,0,0,0-.316-1.242,1.085,1.085,0,0,0-.922-.418ZM15.027,0V-5.687h1.832a2.7,2.7,0,0,1,1.355.342,2.4,2.4,0,0,1,.939.965,2.913,2.913,0,0,1,.342,1.4v.262a2.93,2.93,0,0,1-.33,1.4,2.413,2.413,0,0,1-.93.969A2.636,2.636,0,0,1,16.9,0ZM16.4-4.629v3.574h.477a1.067,1.067,0,0,0,.906-.42A2.058,2.058,0,0,0,18.1-2.723v-.246a2.041,2.041,0,0,0-.316-1.242,1.085,1.085,0,0,0-.922-.418ZM21.57-1.055h2.387V0H20.2V-5.687H21.57ZM28.063-2.41H25.906v1.355h2.547V0H24.535V-5.687h3.926v1.059H25.906v1.2h2.156Z" transform="translate(1308 841.434)"/>
  </g>
</svg>
