<svg xmlns="http://www.w3.org/2000/svg" viewBox="0 0 89.94 214.52"><defs><style>.cls-1,.cls-4{fill:none;stroke-miterlimit:10;}.cls-1{stroke:#1b998b;}.cls-2{fill:#1b998b;}.cls-3{fill:#fff;}.cls-4{stroke:#fff;stroke-width:2px;}.cls-5{fill:#2d3047;}</style></defs><title>middle-pinAsset 2</title><g id="Layer_2" data-name="Layer 2"><g id="Layer_1-2" data-name="Layer 1"><ellipse class="cls-1" cx="44.97" cy="201.68" rx="44.47" ry="12.33"/><ellipse class="cls-1" cx="44.97" cy="201.68" rx="37.93" ry="10.52"/><ellipse class="cls-1" cx="44.97" cy="201.68" rx="37.93" ry="10.52"/><ellipse class="cls-1" cx="44.97" cy="201.68" rx="37.93" ry="10.52"/><ellipse class="cls-1" cx="44.97" cy="201.68" rx="29.02" ry="8.05"/><path class="cls-2" d="M89.44,44.47C89.44,69,69.53,204,45,204S.5,69,.5,44.47a44.47,44.47,0,1,1,88.94,0Z"/><circle class="cls-3" cx="44.97" cy="44.49" r="33.68"/><circle class="cls-4" cx="44.97" cy="44.49" r="33.68"/><path class="cls-5" d="M18.66,38.08l2.77,8.63,2.76-8.63h3.94V50.49h-3v-2.9l.29-5.93-3,8.83h-2l-3-8.84.29,5.94v2.9h-3V38.08Z"/><path class="cls-5" d="M33.21,50.49h-3V38.08h3Z"/><path class="cls-5" d="M35.29,50.49V38.08h4a5.88,5.88,0,0,1,3,.75,5.24,5.24,0,0,1,2,2.1A6.36,6.36,0,0,1,45,44v.57a6.39,6.39,0,0,1-.72,3.05,5.26,5.26,0,0,1-2,2.11,5.75,5.75,0,0,1-2.92.77Zm3-10.1v7.8h1a2.33,2.33,0,0,0,2-.92A4.49,4.49,0,0,0,42,44.55V44a4.45,4.45,0,0,0-.69-2.71,2.37,2.37,0,0,0-2-.91Z"/><path class="cls-5" d="M46.58,50.49V38.08h4a5.88,5.88,0,0,1,3,.75,5.24,5.24,0,0,1,2,2.1,6.36,6.36,0,0,1,.75,3v.57a6.39,6.39,0,0,1-.72,3.05,5.26,5.26,0,0,1-2,2.11,5.75,5.75,0,0,1-2.92.77Zm3-10.1v7.8h1a2.33,2.33,0,0,0,2-.92,4.49,4.49,0,0,0,.69-2.72V44a4.45,4.45,0,0,0-.69-2.71,2.37,2.37,0,0,0-2-.91Z"/><path class="cls-5" d="M60.85,48.18h5.21v2.3h-8.2V38.08h3Z"/><path class="cls-5" d="M75,45.22h-4.7v3h5.56v2.3H67.32V38.08h8.56v2.31H70.31V43H75Z"/></g></g></svg>