<svg xmlns="http://www.w3.org/2000/svg" viewBox="-10230 1282 62 62">
  <defs>
    <style>
      .cls-1, .cls-4 {
        fill: none;
      }

      .cls-1 {
        stroke: #1B998B;
        stroke-width: 1px;
      }

      .cls-2 {
        fill: #1B998B;
      }

      .cls-3 {
        stroke: none;
      }
    </style>
  </defs>
  <g id="group-22" transform="translate(-10520 721)">
    <g id="group-20" transform="translate(272 -3)">
      <g id="rectangle-6" class="cls-1" transform="translate(18 564)">
        <rect class="cls-3" width="62" height="62" rx="5"/>
        <rect class="cls-4" x="0.5" y="0.5" width="61" height="61" rx="4.5"/>
      </g>
    </g>
    <path id="shopping" class="cls-2" d="M20.571,24.429a9.762,9.762,0,0,1-9.762-9.762h3.9a5.857,5.857,0,1,0,11.714,0h3.9a9.762,9.762,0,0,1-9.762,9.762m0-19.524a5.857,5.857,0,0,1,5.857,5.857H14.714A5.857,5.857,0,0,1,20.571,4.9m13.667,5.857h-3.9a9.762,9.762,0,1,0-19.524,0H6.9a3.891,3.891,0,0,0-3.9,3.9V38.1A3.9,3.9,0,0,0,6.9,42H34.238a3.9,3.9,0,0,0,3.9-3.9V14.667A3.9,3.9,0,0,0,34.238,10.762Z" transform="translate(300 571)"/>
  </g>
</svg>
