<svg xmlns="http://www.w3.org/2000/svg" xmlns:xlink="http://www.w3.org/1999/xlink" viewBox="-11939 1232.797 47.579 86.844" width="30" height="90">
  <defs>
    <style>
      .cls-1 {
        fill: #e84855;
      }

      .cls-2 {
        fill: #fff;
      }

      .cls-3 {
        fill: #2d3047;
        font-size: 10px;
        font-family: Roboto-Black, Roboto;
        font-weight: 800;
      }

      .cls-4 {
        filter: url(#path-2);
      }

      .cls-5 {
        filter: url(#path);
      }
    </style>
    <filter id="path" x="-11939" y="1233.797" width="47.579" height="85.844" filterUnits="userSpaceOnUse">
      <feOffset dy="3" input="SourceAlpha"/>
      <feGaussianBlur stdDeviation="3" result="blur"/>
      <feFlood flood-opacity="0.161"/>
      <feComposite operator="in" in2="blur"/>
      <feComposite in="SourceGraphic"/>
    </filter>
    <filter id="path-2" x="-11939" y="1232.797" width="47.579" height="85.844" filterUnits="userSpaceOnUse">
      <feOffset dy="3" input="SourceAlpha"/>
      <feGaussianBlur stdDeviation="3" result="blur-2"/>
      <feFlood flood-opacity="0.161"/>
      <feComposite operator="in" in2="blur-2"/>
      <feComposite in="SourceGraphic"/>
    </filter>
  </defs>
  <g id="group-122" transform="translate(-13383 397)">
    <g id="group-121">
      <g id="group-109">
        <g id="group-103" transform="translate(0 47.817)">
          <g id="group-102" transform="translate(1453 794.98)">
            <g id="group-101">
              <g id="group-5">
                <g class="cls-5" transform="matrix(1, 0, 0, 1, 11930, -1239.8)">
                  <path id="path-3" data-name="path" class="cls-1" d="M95.209,44.789c0,8.158-6.621,53.055-14.789,53.055S65.63,52.947,65.63,44.789a14.789,14.789,0,0,1,29.579,0Z" transform="translate(-11995.63 1209.8)"/>
                </g>
              </g>
              <g id="group-100" transform="translate(3.519 3.531)">
                <circle id="ellipse-8" class="cls-2" cx="11.438" cy="11.438" r="11.438"/>
              </g>
            </g>
          </g>
        </g>
        <text id="YOU" class="cls-3" transform="translate(1458 861)"><tspan x="0" y="0">YOU</tspan></text>
      </g>
      <g id="group-109-2" data-name="group-109">
        <g id="group-103-2" data-name="group-103" transform="translate(0 47.817)">
          <g id="group-102-2" data-name="group-102" transform="translate(1453 794.98)">
            <g id="group-101-2" data-name="group-101">
              <g id="group-5-2" data-name="group-5" transform="translate(0 -1)">
                <g class="cls-4" transform="matrix(1, 0, 0, 1, 11930, -1238.8)">
                  <path id="path-4" data-name="path" class="cls-1" d="M95.209,44.789c0,8.158-6.621,53.055-14.789,53.055S65.63,52.947,65.63,44.789a14.789,14.789,0,0,1,29.579,0Z" transform="translate(-11995.63 1208.8)"/>
                </g>
              </g>
              <g id="group-100-2" data-name="group-100" transform="translate(3.519 3.531)">
                <circle id="ellipse-8-2" data-name="ellipse-8" class="cls-2" cx="11.438" cy="11.438" r="11.438"/>
              </g>
            </g>
          </g>
        </g>
        <text id="YOU-2" data-name="YOU" class="cls-3" transform="translate(1458 861)"><tspan x="0" y="0">YOU</tspan></text>
      </g>
    </g>
  </g>
</svg>
