<svg xmlns="http://www.w3.org/2000/svg" xmlns:xlink="http://www.w3.org/1999/xlink" viewBox="-11633 1032.797 48.015 86.844" width="30" height="90">
  <defs>
    <style>
      .cls-1 {
        fill: #e84855;
      }

      .cls-2 {
        fill: #fff;
      }

      .cls-3 {
        fill: none;
        stroke: #fff;
        stroke-width: 2px;
      }

      .cls-4 {
        fill: #2d3047;
      }

      .cls-5 {
        filter: url(#path);
      }
    </style>
    <filter id="path" x="-11633" y="1032.797" width="48.015" height="86.844" filterUnits="userSpaceOnUse">
      <feOffset dy="3" input="SourceAlpha"/>
      <feGaussianBlur stdDeviation="3" result="blur"/>
      <feFlood flood-opacity="0.161"/>
      <feComposite operator="in" in2="blur"/>
      <feComposite in="SourceGraphic"/>
    </filter>
  </defs>
  <g id="group-127" transform="translate(-11624 1038.797)">
    <g class="cls-5" transform="matrix(1, 0, 0, 1, 11624, -1038.8)">
      <path id="path-2" data-name="path" class="cls-1" d="M95.645,45.007c0,8.278-6.719,53.836-15.007,53.836S65.63,53.285,65.63,45.007a15.007,15.007,0,0,1,30.015,0Z" transform="translate(-11689.63 1008.8)"/>
    </g>
    <circle id="ellipse" class="cls-2" cx="11.366" cy="11.366" r="11.366" transform="translate(3.641 4.495)"/>
    <circle id="ellipse-2" data-name="ellipse" class="cls-3" cx="11.366" cy="11.366" r="11.366" transform="translate(3.641 4.495)"/>
    <path id="path-3" data-name="path" class="cls-4" d="M82.089,69.645l1.427-3.375h2.025l-2.507,4.971v2.784h-1.9V71.241L78.65,66.28h2.008Z" transform="translate(-74.256 -54.03)"/>
    <path id="path-4" data-name="path" class="cls-4" d="M106.381,70.1a4.569,4.569,0,0,1-.422,2.008,3.108,3.108,0,0,1-1.195,1.35,3.327,3.327,0,0,1-1.765.472,3.375,3.375,0,0,1-1.758-.456,3.1,3.1,0,0,1-1.195-1.3,4.441,4.441,0,0,1-.449-1.944v-.442a4.59,4.59,0,0,1,.418-2.025,3.1,3.1,0,0,1,1.2-1.35,3.547,3.547,0,0,1,3.53,0,3.159,3.159,0,0,1,1.2,1.35,4.461,4.461,0,0,1,.435,1.984Zm-1.9-.337A3.26,3.26,0,0,0,104.1,68a1.238,1.238,0,0,0-1.1-.6q-1.4,0-1.485,2.109v.57a3.351,3.351,0,0,0,.378,1.751,1.235,1.235,0,0,0,1.124.611,1.222,1.222,0,0,0,1.09-.6,3.263,3.263,0,0,0,.388-1.731Z" transform="translate(-88.134 -53.809)"/>
    <path id="path-5" data-name="path" class="cls-4" d="M128.58,66.3v5.062a2.916,2.916,0,0,1-.368,1.492,2.379,2.379,0,0,1-1.053.962,3.712,3.712,0,0,1-1.623.337,3.206,3.206,0,0,1-2.231-.736,2.619,2.619,0,0,1-.83-2.025V66.3h1.863v5.146q.034,1.272,1.181,1.272a1.144,1.144,0,0,0,.877-.321,1.492,1.492,0,0,0,.3-1.036V66.3Z" transform="translate(-103.29 -54.05)"/>
  </g>
</svg>
